<svg width="27" height="24" viewBox="0 0 27 24" fill="none" xmlns="http://www.w3.org/2000/svg">
<path d="M26.0357 4.35938H0.964285C0.431698 4.35938 0 3.92568 0 3.39062V0.96875C0 0.433697 0.431698 0 0.964285 0H26.0357C26.5683 0 27 0.433697 27 0.96875V3.39062C27 3.92568 26.5683 4.35938 26.0357 4.35938ZM26.0357 14.0469H0.964285C0.431698 14.0469 0 13.6132 0 13.0781V10.6562C0 10.1212 0.431698 9.6875 0.964285 9.6875H26.0357C26.5683 9.6875 27 10.1212 27 10.6562V13.0781C27 13.6132 26.5683 14.0469 26.0357 14.0469ZM26.0357 23.7344H0.964285C0.431698 23.7344 0 23.3007 0 22.7656V20.3438C0 19.8087 0.431698 19.375 0.964285 19.375H26.0357C26.5683 19.375 27 19.8087 27 20.3438V22.7656C27 23.3007 26.5683 23.7344 26.0357 23.7344Z" fill="#FFF3E1"/>
</svg>
