<svg width="227" height="43" viewBox="0 0 227 43" fill="none" xmlns="http://www.w3.org/2000/svg">
<path d="M28.8 7.68C28.8 8.48 28.6267 9.08 28.28 9.48C27.96 9.88 27.4267 10.08 26.68 10.08C26.6267 10.64 26.5067 11.6133 26.32 13C26.0533 14.8667 25.9067 15.9067 25.88 16.12C23.5067 33.8 18.56 42.64 11.04 42.64C8.82667 42.64 7.09333 42.0133 5.84 40.76C4.61333 39.5067 4 37.9333 4 36.04C4 32.6533 5.44 29.6667 8.32 27.08C11.2 24.4667 14.9867 22.3067 19.68 20.6C19.9733 18.7067 20.2 17.0133 20.36 15.52L21.08 9.48C19.48 9.32 17.9867 9.24 16.6 9.24C12.8933 9.24 10.16 9.6 8.4 10.32C6.64 11.04 5.76 12.2133 5.76 13.84C5.76 14.64 6.02667 15.5067 6.56 16.44C6.72 16.7067 6.8 16.9867 6.8 17.28C6.8 17.84 6.50667 18.3467 5.92 18.8C5.36 19.2267 4.74667 19.44 4.08 19.44C3.22667 19.44 2.57333 19.08 2.12 18.36C1.37333 17.1333 1 15.7067 1 14.08C1 7.68 6.6 4.48 17.8 4.48C21.0533 4.48 23.96 4.8 26.52 5.44C28.04 5.81333 28.8 6.56 28.8 7.68ZM11.56 38.36C12.8667 38.36 14.1733 37.3733 15.48 35.4C16.7867 33.4267 17.9333 29.9733 18.92 25.04C12.4133 27.8933 9.16 31.3867 9.16 35.52C9.16 36.4267 9.37333 37.1333 9.8 37.64C10.2267 38.12 10.8133 38.36 11.56 38.36Z" fill="#FFF3E1"/>
<path d="M45.8497 29.44C46.1964 29.44 46.463 29.6 46.6497 29.92C46.863 30.24 46.9697 30.68 46.9697 31.24C46.9697 32.3067 46.7164 33.1333 46.2097 33.72C45.223 34.92 43.823 36.0267 42.0097 37.04C40.223 38.0533 38.303 38.56 36.2497 38.56C33.4497 38.56 31.2764 37.8 29.7297 36.28C28.183 34.76 27.4097 32.68 27.4097 30.04C27.4097 28.2 27.7964 26.4933 28.5697 24.92C29.343 23.32 30.4097 22.0533 31.7697 21.12C33.1564 20.1867 34.7164 19.72 36.4497 19.72C37.9964 19.72 39.2364 20.1867 40.1697 21.12C41.103 22.0267 41.5697 23.2667 41.5697 24.84C41.5697 26.68 40.903 28.2667 39.5697 29.6C38.263 30.9067 36.0364 31.9467 32.8897 32.72C33.5564 33.9467 34.823 34.56 36.6897 34.56C37.8897 34.56 39.2497 34.1467 40.7697 33.32C42.3164 32.4667 43.6497 31.36 44.7697 30C45.0897 29.6267 45.4497 29.44 45.8497 29.44ZM35.7697 23.64C34.783 23.64 33.943 24.2133 33.2497 25.36C32.583 26.5067 32.2497 27.8933 32.2497 29.52V29.6C33.823 29.2267 35.063 28.6667 35.9697 27.92C36.8764 27.1733 37.3297 26.3067 37.3297 25.32C37.3297 24.8133 37.183 24.4133 36.8897 24.12C36.623 23.8 36.2497 23.64 35.7697 23.64Z" fill="#FFF3E1"/>
<path d="M51.1528 39.44C49.7661 39.44 48.6995 39.12 47.9528 38.48C47.2328 37.84 46.8728 37.12 46.8728 36.32C46.8728 35.6267 47.1261 35.0267 47.6328 34.52C48.1395 34.0133 48.8861 33.76 49.8728 33.76C50.2195 33.76 50.6195 33.8 51.0728 33.88C51.5528 33.9333 51.9128 33.9733 52.1528 34C52.1261 33.3067 51.9661 32.6533 51.6728 32.04C51.4061 31.4267 51.0595 30.84 50.6328 30.28C50.2061 29.6933 49.8061 29.1867 49.4328 28.76C48.6061 30.3333 47.7795 31.64 46.9528 32.68C46.1528 33.72 45.2728 34.7067 44.3128 35.64C43.8328 36.12 43.3261 36.36 42.7928 36.36C42.3661 36.36 42.0195 36.2133 41.7528 35.92C41.4861 35.6 41.3528 35.2133 41.3528 34.76C41.3528 34.2267 41.5395 33.7333 41.9128 33.28L42.4328 32.64C43.8995 30.8267 45.0061 29.3333 45.7528 28.16C46.2061 27.3867 46.7395 26.36 47.3528 25.08C47.9661 23.7733 48.5661 22.4267 49.1528 21.04C49.6595 19.8667 50.7128 19.28 52.3128 19.28C53.0595 19.28 53.5795 19.3467 53.8728 19.48C54.1661 19.6133 54.3128 19.8267 54.3128 20.12C54.3128 20.28 54.2595 20.5333 54.1528 20.88C54.0461 21.2267 53.8995 21.5733 53.7128 21.92C53.2328 22.88 52.9928 23.6933 52.9928 24.36C52.9928 24.76 53.1261 25.2 53.3928 25.68C53.6861 26.16 54.1261 26.76 54.7128 27.48C55.5661 28.6 56.2061 29.56 56.6328 30.36C57.0861 31.1333 57.3128 31.9867 57.3128 32.92C57.3128 33.1867 57.2861 33.56 57.2328 34.04C58.5395 33.5333 60.0728 32.1867 61.8328 30C62.1528 29.6267 62.5128 29.44 62.9128 29.44C63.2595 29.44 63.5261 29.6 63.7128 29.92C63.9261 30.24 64.0328 30.68 64.0328 31.24C64.0328 32.2533 63.7795 33.08 63.2728 33.72C61.9395 35.3733 60.6595 36.5067 59.4328 37.12C58.2328 37.7067 56.7395 38.0267 54.9528 38.08C53.8861 38.9867 52.6195 39.44 51.1528 39.44Z" fill="#FFF3E1"/>
<path d="M68.2231 39.44C66.8365 39.44 65.7698 39.12 65.0231 38.48C64.3031 37.84 63.9431 37.12 63.9431 36.32C63.9431 35.6267 64.1965 35.0267 64.7031 34.52C65.2098 34.0133 65.9565 33.76 66.9431 33.76C67.2898 33.76 67.6898 33.8 68.1431 33.88C68.6231 33.9333 68.9831 33.9733 69.2231 34C69.1965 33.3067 69.0365 32.6533 68.7431 32.04C68.4765 31.4267 68.1298 30.84 67.7031 30.28C67.2765 29.6933 66.8765 29.1867 66.5031 28.76C65.6765 30.3333 64.8498 31.64 64.0231 32.68C63.2231 33.72 62.3431 34.7067 61.3831 35.64C60.9031 36.12 60.3965 36.36 59.8631 36.36C59.4365 36.36 59.0898 36.2133 58.8231 35.92C58.5565 35.6 58.4231 35.2133 58.4231 34.76C58.4231 34.2267 58.6098 33.7333 58.9831 33.28L59.5031 32.64C60.9698 30.8267 62.0765 29.3333 62.8231 28.16C63.3031 27.3867 63.7831 26.4667 64.2631 25.4C64.7698 24.3333 65.4231 22.88 66.2231 21.04C66.7298 19.8667 67.7831 19.28 69.3831 19.28C70.1298 19.28 70.6498 19.3467 70.9431 19.48C71.2365 19.6133 71.3831 19.8267 71.3831 20.12C71.3831 20.28 71.3298 20.5333 71.2231 20.88C71.1165 21.2267 70.9698 21.5733 70.7831 21.92C70.3031 22.88 70.0631 23.6933 70.0631 24.36C70.0631 24.76 70.1965 25.2 70.4631 25.68C70.7565 26.16 71.1965 26.76 71.7831 27.48C72.6365 28.6 73.2765 29.56 73.7031 30.36C74.1565 31.1333 74.3831 31.9867 74.3831 32.92C74.3831 34.04 74.1165 35.1067 73.5831 36.12C73.0765 37.1067 72.3565 37.9067 71.4231 38.52C70.4898 39.1333 69.4231 39.44 68.2231 39.44Z" fill="#FFF3E1"/>
<path d="M97.5112 38.56C95.9646 38.56 94.2179 38.4267 92.2713 38.16C91.2046 38.0267 90.4712 37.7467 90.0712 37.32C89.6712 36.8933 89.4979 36.2 89.5513 35.24C89.7379 32.6 90.1779 29.3467 90.8712 25.48C91.5646 21.5867 92.4046 17.84 93.3913 14.24C93.5779 13.5733 93.9512 13.1067 94.5112 12.84C95.0712 12.5733 95.8046 12.44 96.7113 12.44C98.3379 12.44 99.1512 12.8933 99.1512 13.8C99.1512 14.1733 99.0713 14.6 98.9113 15.08C98.2179 17.2133 97.5246 20.08 96.8313 23.68C96.1379 27.2533 95.6446 30.6667 95.3513 33.92C96.1513 34 97.0579 34.04 98.0713 34.04C102.738 34.04 106.218 32.6267 108.511 29.8C110.831 26.9733 111.991 23.2 111.991 18.48C111.991 15.3067 111.085 12.8533 109.271 11.12C107.458 9.38667 104.898 8.52 101.591 8.52C99.4579 8.52 97.3379 8.85333 95.2312 9.52C93.1512 10.1867 91.2712 11.0667 89.5912 12.16C89.2446 12.4 88.8713 12.52 88.4713 12.52C88.0179 12.52 87.6579 12.3333 87.3913 11.96C87.1246 11.56 86.9913 11.08 86.9913 10.52C86.9913 9.88 87.0979 9.36 87.3112 8.96C87.5246 8.53333 87.8846 8.14667 88.3913 7.8C90.2313 6.54667 92.3912 5.6 94.8712 4.96C97.3512 4.29333 99.7379 3.96 102.031 3.96C105.285 3.96 108.098 4.53333 110.471 5.68C112.845 6.8 114.671 8.45333 115.951 10.64C117.231 12.8267 117.871 15.4667 117.871 18.56C117.871 22.5867 117.071 26.1067 115.471 29.12C113.871 32.1067 111.538 34.4267 108.471 36.08C105.405 37.7333 101.751 38.56 97.5112 38.56Z" fill="#FFF3E1"/>
<path d="M124.288 14.56C123.701 14.56 123.234 14.4267 122.887 14.16C122.541 13.8933 122.367 13.4667 122.367 12.88C122.367 12.64 122.408 12.36 122.488 12.04C122.781 10.8133 122.994 9.68 123.128 8.64C123.288 7.6 123.368 6.44 123.368 5.16C123.368 3.82667 123.674 2.8 124.288 2.08C124.928 1.36 125.741 1 126.728 1C127.688 1 128.408 1.26667 128.888 1.8C129.394 2.30667 129.648 3 129.648 3.88C129.648 4.81333 129.368 6.05333 128.808 7.6C128.248 9.14667 127.568 10.6533 126.768 12.12C126.234 13.1067 125.808 13.76 125.488 14.08C125.194 14.4 124.794 14.56 124.288 14.56Z" fill="#FFF3E1"/>
<path d="M140.771 38.68C137.225 38.68 134.385 38.0133 132.251 36.68C130.118 35.32 129.051 33.2533 129.051 30.48C129.051 29.0133 129.305 27.8933 129.811 27.12C130.318 26.3467 131.065 25.96 132.051 25.96C132.771 25.96 133.358 26.1467 133.811 26.52C134.265 26.8933 134.491 27.3733 134.491 27.96C134.491 28.4933 134.451 28.96 134.371 29.36C134.371 29.4667 134.345 29.6533 134.291 29.92C134.265 30.1867 134.251 30.4667 134.251 30.76C134.251 31.96 134.851 32.8533 136.051 33.44C137.278 34.0267 138.985 34.32 141.171 34.32C143.438 34.32 145.211 33.92 146.491 33.12C147.771 32.2933 148.411 31.1467 148.411 29.68C148.411 28.7733 148.118 28 147.531 27.36C146.945 26.6933 146.211 26.1467 145.331 25.72C144.451 25.2667 143.211 24.72 141.611 24.08C139.558 23.28 137.878 22.52 136.571 21.8C135.291 21.08 134.185 20.1067 133.251 18.88C132.345 17.6267 131.891 16.08 131.891 14.24C131.891 12.32 132.398 10.6133 133.411 9.12C134.451 7.62667 135.931 6.46666 137.851 5.64C139.798 4.81333 142.078 4.4 144.691 4.4C146.638 4.4 148.425 4.69333 150.051 5.28C151.678 5.84 152.971 6.70667 153.931 7.88C154.918 9.05333 155.411 10.4933 155.411 12.2C155.411 13.88 155.158 15.1467 154.651 16C154.145 16.8533 153.398 17.28 152.411 17.28C151.718 17.28 151.131 17.0667 150.651 16.64C150.198 16.2133 149.971 15.7067 149.971 15.12C149.971 14.6133 150.011 14.1467 150.091 13.72C150.171 12.92 150.211 12.4133 150.211 12.2C150.211 11.08 149.665 10.2267 148.571 9.64C147.478 9.05333 146.118 8.76 144.491 8.76C142.198 8.76 140.438 9.18667 139.211 10.04C138.011 10.8667 137.411 12.04 137.411 13.56C137.411 14.5733 137.718 15.44 138.331 16.16C138.971 16.88 139.758 17.48 140.691 17.96C141.625 18.44 142.931 19.0133 144.611 19.68C146.638 20.5067 148.265 21.2533 149.491 21.92C150.718 22.5867 151.758 23.4933 152.611 24.64C153.491 25.7867 153.931 27.2 153.931 28.88C153.931 32.0267 152.731 34.4533 150.331 36.16C147.958 37.84 144.771 38.68 140.771 38.68Z" fill="#FFF3E1"/>
<path d="M177.746 26.08C178.092 26.08 178.359 26.2533 178.546 26.6C178.732 26.9467 178.826 27.3867 178.826 27.92C178.826 29.2 178.439 29.96 177.666 30.2C176.066 30.76 174.306 31.08 172.386 31.16C171.879 33.4 170.879 35.2 169.386 36.56C167.892 37.8933 166.199 38.56 164.306 38.56C162.706 38.56 161.332 38.1733 160.186 37.4C159.066 36.6267 158.212 35.6 157.626 34.32C157.039 33.04 156.746 31.6533 156.746 30.16C156.746 28.1333 157.132 26.3333 157.906 24.76C158.679 23.16 159.746 21.92 161.106 21.04C162.466 20.1333 163.972 19.68 165.626 19.68C167.652 19.68 169.279 20.3867 170.506 21.8C171.759 23.1867 172.492 24.9067 172.706 26.96C173.959 26.88 175.452 26.6133 177.186 26.16C177.399 26.1067 177.586 26.08 177.746 26.08ZM164.626 34.32C165.479 34.32 166.212 33.9733 166.826 33.28C167.466 32.5867 167.892 31.5867 168.106 30.28C167.279 29.72 166.639 28.9867 166.186 28.08C165.759 27.1733 165.546 26.2133 165.546 25.2C165.546 24.7733 165.586 24.3467 165.666 23.92H165.466C164.399 23.92 163.506 24.44 162.786 25.48C162.092 26.4933 161.746 27.9333 161.746 29.8C161.746 31.2667 162.026 32.3867 162.586 33.16C163.172 33.9333 163.852 34.32 164.626 34.32Z" fill="#FFF3E1"/>
<path d="M179.473 38.56C178.273 38.56 177.286 38.0133 176.512 36.92C175.766 35.8 175.393 34.4133 175.393 32.76C175.393 30.76 175.526 28.9333 175.793 27.28C176.059 25.6 176.499 23.8267 177.113 21.96C177.379 21.16 177.752 20.5867 178.232 20.24C178.712 19.8933 179.472 19.72 180.512 19.72C181.099 19.72 181.499 19.8133 181.713 20C181.953 20.1867 182.073 20.4667 182.073 20.84C182.073 21.0533 181.926 21.7733 181.633 23C181.366 23.9867 181.153 24.88 180.993 25.68C180.459 28.48 180.193 30.3467 180.193 31.28C180.193 31.84 180.259 32.24 180.393 32.48C180.526 32.6933 180.739 32.8 181.033 32.8C181.433 32.8 181.926 32.4 182.512 31.6C183.126 30.8 183.766 29.5867 184.433 27.96C185.126 26.3333 185.793 24.3333 186.433 21.96C186.646 21.16 186.966 20.5867 187.393 20.24C187.846 19.8933 188.513 19.72 189.393 19.72C190.006 19.72 190.433 19.8 190.673 19.96C190.913 20.0933 191.033 20.36 191.033 20.76C191.033 21.4267 190.699 23.2533 190.033 26.24C189.286 29.6533 188.913 31.76 188.913 32.56C188.913 33.0667 189.019 33.4667 189.232 33.76C189.446 34.0267 189.726 34.16 190.073 34.16C190.606 34.16 191.232 33.84 191.952 33.2C192.699 32.5333 193.686 31.4667 194.913 30C195.233 29.6267 195.593 29.44 195.993 29.44C196.339 29.44 196.606 29.6 196.793 29.92C197.006 30.24 197.113 30.68 197.113 31.24C197.113 32.3067 196.859 33.1333 196.353 33.72C195.206 35.1333 193.966 36.2933 192.633 37.2C191.326 38.1067 189.833 38.56 188.153 38.56C186.873 38.56 185.926 38.0667 185.312 37.08C184.726 36.0933 184.433 34.7067 184.433 32.92C183.979 34.7333 183.299 36.1333 182.393 37.12C181.486 38.08 180.513 38.56 179.473 38.56Z" fill="#FFF3E1"/>
<path d="M213.048 29.44C213.394 29.44 213.661 29.6 213.848 29.92C214.061 30.24 214.168 30.68 214.168 31.24C214.168 32.2267 213.914 33.0533 213.408 33.72C212.154 35.3467 210.594 36.6267 208.728 37.56C206.888 38.4933 204.808 38.96 202.488 38.96C200.674 38.96 199.101 38.6933 197.768 38.16C196.434 37.6 195.408 36.8533 194.688 35.92C193.994 34.96 193.648 33.8933 193.648 32.72C193.648 30.96 194.354 29.4 195.768 28.04C197.181 26.68 199.208 25.3733 201.848 24.12L195.288 24.28C194.701 24.3067 194.248 24.1067 193.928 23.68C193.634 23.2267 193.488 22.6933 193.488 22.08C193.488 21.44 193.634 20.88 193.928 20.4C194.248 19.8933 194.674 19.64 195.208 19.64C196.434 19.64 198.074 19.7333 200.128 19.92C200.554 19.9467 201.328 20 202.448 20.08C203.594 20.16 204.554 20.2 205.328 20.2C205.594 20.2 206.101 20.0933 206.848 19.88C206.981 19.8533 207.234 19.7867 207.608 19.68C208.008 19.5733 208.341 19.52 208.608 19.52C209.034 19.52 209.381 19.7067 209.648 20.08C209.941 20.4533 210.088 21.0267 210.088 21.8C210.088 22.6533 209.888 23.32 209.488 23.8C209.088 24.28 208.461 24.7067 207.608 25.08C205.181 26.12 203.168 27.24 201.568 28.44C199.968 29.6133 199.168 30.7867 199.168 31.96C199.168 32.7067 199.514 33.32 200.208 33.8C200.901 34.28 201.928 34.52 203.288 34.52C204.781 34.52 206.288 34.1467 207.808 33.4C209.354 32.6533 210.741 31.52 211.968 30C212.288 29.6267 212.648 29.44 213.048 29.44Z" fill="#FFF3E1"/>
<path d="M215.11 38.56C213.59 38.56 212.35 37.96 211.39 36.76C210.456 35.56 209.99 33.9867 209.99 32.04C209.99 29.9067 210.483 27.8933 211.47 26C212.456 24.08 213.763 22.5467 215.39 21.4C217.043 20.2267 218.79 19.64 220.63 19.64C221.216 19.64 221.603 19.76 221.79 20C222.003 20.2133 222.176 20.6133 222.31 21.2C222.816 21.0933 223.376 21.04 223.99 21.04C224.63 21.04 225.123 21.2 225.47 21.52C225.816 21.84 225.99 22.2933 225.99 22.88C225.99 23.4933 225.856 24.56 225.59 26.08C225.296 27.7067 225.07 29.2667 224.91 30.76C224.75 32.2267 224.67 33.88 224.67 35.72C224.67 36.7333 224.456 37.4667 224.03 37.92C223.63 38.3467 222.963 38.56 222.03 38.56C221.123 38.56 220.443 38.3467 219.99 37.92C219.563 37.4667 219.35 36.7467 219.35 35.76L219.39 35.12C218.563 37.4133 217.136 38.56 215.11 38.56ZM216.67 34.52C217.416 34.52 218.096 34 218.71 32.96C219.323 31.92 219.87 30.0667 220.35 27.4L221.11 23.36C220.016 23.3867 219.003 23.8133 218.07 24.64C217.136 25.44 216.39 26.5067 215.83 27.84C215.27 29.1733 214.99 30.5867 214.99 32.08C214.99 32.88 215.136 33.4933 215.43 33.92C215.75 34.32 216.163 34.52 216.67 34.52Z" fill="#FFF3E1"/>
<path d="M28.8 7.68C28.8 8.48 28.6267 9.08 28.28 9.48C27.96 9.88 27.4267 10.08 26.68 10.08C26.6267 10.64 26.5067 11.6133 26.32 13C26.0533 14.8667 25.9067 15.9067 25.88 16.12C23.5067 33.8 18.56 42.64 11.04 42.64C8.82667 42.64 7.09333 42.0133 5.84 40.76C4.61333 39.5067 4 37.9333 4 36.04C4 32.6533 5.44 29.6667 8.32 27.08C11.2 24.4667 14.9867 22.3067 19.68 20.6C19.9733 18.7067 20.2 17.0133 20.36 15.52L21.08 9.48C19.48 9.32 17.9867 9.24 16.6 9.24C12.8933 9.24 10.16 9.6 8.4 10.32C6.64 11.04 5.76 12.2133 5.76 13.84C5.76 14.64 6.02667 15.5067 6.56 16.44C6.72 16.7067 6.8 16.9867 6.8 17.28C6.8 17.84 6.50667 18.3467 5.92 18.8C5.36 19.2267 4.74667 19.44 4.08 19.44C3.22667 19.44 2.57333 19.08 2.12 18.36C1.37333 17.1333 1 15.7067 1 14.08C1 7.68 6.6 4.48 17.8 4.48C21.0533 4.48 23.96 4.8 26.52 5.44C28.04 5.81333 28.8 6.56 28.8 7.68ZM11.56 38.36C12.8667 38.36 14.1733 37.3733 15.48 35.4C16.7867 33.4267 17.9333 29.9733 18.92 25.04C12.4133 27.8933 9.16 31.3867 9.16 35.52C9.16 36.4267 9.37333 37.1333 9.8 37.64C10.2267 38.12 10.8133 38.36 11.56 38.36Z" stroke="#FFF3E1" stroke-width="0.5"/>
<path d="M45.8497 29.44C46.1964 29.44 46.463 29.6 46.6497 29.92C46.863 30.24 46.9697 30.68 46.9697 31.24C46.9697 32.3067 46.7164 33.1333 46.2097 33.72C45.223 34.92 43.823 36.0267 42.0097 37.04C40.223 38.0533 38.303 38.56 36.2497 38.56C33.4497 38.56 31.2764 37.8 29.7297 36.28C28.183 34.76 27.4097 32.68 27.4097 30.04C27.4097 28.2 27.7964 26.4933 28.5697 24.92C29.343 23.32 30.4097 22.0533 31.7697 21.12C33.1564 20.1867 34.7164 19.72 36.4497 19.72C37.9964 19.72 39.2364 20.1867 40.1697 21.12C41.103 22.0267 41.5697 23.2667 41.5697 24.84C41.5697 26.68 40.903 28.2667 39.5697 29.6C38.263 30.9067 36.0364 31.9467 32.8897 32.72C33.5564 33.9467 34.823 34.56 36.6897 34.56C37.8897 34.56 39.2497 34.1467 40.7697 33.32C42.3164 32.4667 43.6497 31.36 44.7697 30C45.0897 29.6267 45.4497 29.44 45.8497 29.44ZM35.7697 23.64C34.783 23.64 33.943 24.2133 33.2497 25.36C32.583 26.5067 32.2497 27.8933 32.2497 29.52V29.6C33.823 29.2267 35.063 28.6667 35.9697 27.92C36.8764 27.1733 37.3297 26.3067 37.3297 25.32C37.3297 24.8133 37.183 24.4133 36.8897 24.12C36.623 23.8 36.2497 23.64 35.7697 23.64Z" stroke="#FFF3E1" stroke-width="0.5"/>
<path d="M51.1528 39.44C49.7661 39.44 48.6995 39.12 47.9528 38.48C47.2328 37.84 46.8728 37.12 46.8728 36.32C46.8728 35.6267 47.1261 35.0267 47.6328 34.52C48.1395 34.0133 48.8861 33.76 49.8728 33.76C50.2195 33.76 50.6195 33.8 51.0728 33.88C51.5528 33.9333 51.9128 33.9733 52.1528 34C52.1261 33.3067 51.9661 32.6533 51.6728 32.04C51.4061 31.4267 51.0595 30.84 50.6328 30.28C50.2061 29.6933 49.8061 29.1867 49.4328 28.76C48.6061 30.3333 47.7795 31.64 46.9528 32.68C46.1528 33.72 45.2728 34.7067 44.3128 35.64C43.8328 36.12 43.3261 36.36 42.7928 36.36C42.3661 36.36 42.0195 36.2133 41.7528 35.92C41.4861 35.6 41.3528 35.2133 41.3528 34.76C41.3528 34.2267 41.5395 33.7333 41.9128 33.28L42.4328 32.64C43.8995 30.8267 45.0061 29.3333 45.7528 28.16C46.2061 27.3867 46.7395 26.36 47.3528 25.08C47.9661 23.7733 48.5661 22.4267 49.1528 21.04C49.6595 19.8667 50.7128 19.28 52.3128 19.28C53.0595 19.28 53.5795 19.3467 53.8728 19.48C54.1661 19.6133 54.3128 19.8267 54.3128 20.12C54.3128 20.28 54.2595 20.5333 54.1528 20.88C54.0461 21.2267 53.8995 21.5733 53.7128 21.92C53.2328 22.88 52.9928 23.6933 52.9928 24.36C52.9928 24.76 53.1261 25.2 53.3928 25.68C53.6861 26.16 54.1261 26.76 54.7128 27.48C55.5661 28.6 56.2061 29.56 56.6328 30.36C57.0861 31.1333 57.3128 31.9867 57.3128 32.92C57.3128 33.1867 57.2861 33.56 57.2328 34.04C58.5395 33.5333 60.0728 32.1867 61.8328 30C62.1528 29.6267 62.5128 29.44 62.9128 29.44C63.2595 29.44 63.5261 29.6 63.7128 29.92C63.9261 30.24 64.0328 30.68 64.0328 31.24C64.0328 32.2533 63.7795 33.08 63.2728 33.72C61.9395 35.3733 60.6595 36.5067 59.4328 37.12C58.2328 37.7067 56.7395 38.0267 54.9528 38.08C53.8861 38.9867 52.6195 39.44 51.1528 39.44Z" stroke="#FFF3E1" stroke-width="0.5"/>
<path d="M68.2231 39.44C66.8365 39.44 65.7698 39.12 65.0231 38.48C64.3031 37.84 63.9431 37.12 63.9431 36.32C63.9431 35.6267 64.1965 35.0267 64.7031 34.52C65.2098 34.0133 65.9565 33.76 66.9431 33.76C67.2898 33.76 67.6898 33.8 68.1431 33.88C68.6231 33.9333 68.9831 33.9733 69.2231 34C69.1965 33.3067 69.0365 32.6533 68.7431 32.04C68.4765 31.4267 68.1298 30.84 67.7031 30.28C67.2765 29.6933 66.8765 29.1867 66.5031 28.76C65.6765 30.3333 64.8498 31.64 64.0231 32.68C63.2231 33.72 62.3431 34.7067 61.3831 35.64C60.9031 36.12 60.3965 36.36 59.8631 36.36C59.4365 36.36 59.0898 36.2133 58.8231 35.92C58.5565 35.6 58.4231 35.2133 58.4231 34.76C58.4231 34.2267 58.6098 33.7333 58.9831 33.28L59.5031 32.64C60.9698 30.8267 62.0765 29.3333 62.8231 28.16C63.3031 27.3867 63.7831 26.4667 64.2631 25.4C64.7698 24.3333 65.4231 22.88 66.2231 21.04C66.7298 19.8667 67.7831 19.28 69.3831 19.28C70.1298 19.28 70.6498 19.3467 70.9431 19.48C71.2365 19.6133 71.3831 19.8267 71.3831 20.12C71.3831 20.28 71.3298 20.5333 71.2231 20.88C71.1165 21.2267 70.9698 21.5733 70.7831 21.92C70.3031 22.88 70.0631 23.6933 70.0631 24.36C70.0631 24.76 70.1965 25.2 70.4631 25.68C70.7565 26.16 71.1965 26.76 71.7831 27.48C72.6365 28.6 73.2765 29.56 73.7031 30.36C74.1565 31.1333 74.3831 31.9867 74.3831 32.92C74.3831 34.04 74.1165 35.1067 73.5831 36.12C73.0765 37.1067 72.3565 37.9067 71.4231 38.52C70.4898 39.1333 69.4231 39.44 68.2231 39.44Z" stroke="#FFF3E1" stroke-width="0.5"/>
<path d="M97.5112 38.56C95.9646 38.56 94.2179 38.4267 92.2713 38.16C91.2046 38.0267 90.4712 37.7467 90.0712 37.32C89.6712 36.8933 89.4979 36.2 89.5513 35.24C89.7379 32.6 90.1779 29.3467 90.8712 25.48C91.5646 21.5867 92.4046 17.84 93.3913 14.24C93.5779 13.5733 93.9512 13.1067 94.5112 12.84C95.0712 12.5733 95.8046 12.44 96.7113 12.44C98.3379 12.44 99.1512 12.8933 99.1512 13.8C99.1512 14.1733 99.0713 14.6 98.9113 15.08C98.2179 17.2133 97.5246 20.08 96.8313 23.68C96.1379 27.2533 95.6446 30.6667 95.3513 33.92C96.1513 34 97.0579 34.04 98.0713 34.04C102.738 34.04 106.218 32.6267 108.511 29.8C110.831 26.9733 111.991 23.2 111.991 18.48C111.991 15.3067 111.085 12.8533 109.271 11.12C107.458 9.38667 104.898 8.52 101.591 8.52C99.4579 8.52 97.3379 8.85333 95.2312 9.52C93.1512 10.1867 91.2712 11.0667 89.5912 12.16C89.2446 12.4 88.8713 12.52 88.4713 12.52C88.0179 12.52 87.6579 12.3333 87.3913 11.96C87.1246 11.56 86.9913 11.08 86.9913 10.52C86.9913 9.88 87.0979 9.36 87.3112 8.96C87.5246 8.53333 87.8846 8.14667 88.3913 7.8C90.2313 6.54667 92.3912 5.6 94.8712 4.96C97.3512 4.29333 99.7379 3.96 102.031 3.96C105.285 3.96 108.098 4.53333 110.471 5.68C112.845 6.8 114.671 8.45333 115.951 10.64C117.231 12.8267 117.871 15.4667 117.871 18.56C117.871 22.5867 117.071 26.1067 115.471 29.12C113.871 32.1067 111.538 34.4267 108.471 36.08C105.405 37.7333 101.751 38.56 97.5112 38.56Z" stroke="#FFF3E1" stroke-width="0.5"/>
<path d="M124.288 14.56C123.701 14.56 123.234 14.4267 122.887 14.16C122.541 13.8933 122.367 13.4667 122.367 12.88C122.367 12.64 122.408 12.36 122.488 12.04C122.781 10.8133 122.994 9.68 123.128 8.64C123.288 7.6 123.368 6.44 123.368 5.16C123.368 3.82667 123.674 2.8 124.288 2.08C124.928 1.36 125.741 1 126.728 1C127.688 1 128.408 1.26667 128.888 1.8C129.394 2.30667 129.648 3 129.648 3.88C129.648 4.81333 129.368 6.05333 128.808 7.6C128.248 9.14667 127.568 10.6533 126.768 12.12C126.234 13.1067 125.808 13.76 125.488 14.08C125.194 14.4 124.794 14.56 124.288 14.56Z" stroke="#FFF3E1" stroke-width="0.5"/>
<path d="M140.771 38.68C137.225 38.68 134.385 38.0133 132.251 36.68C130.118 35.32 129.051 33.2533 129.051 30.48C129.051 29.0133 129.305 27.8933 129.811 27.12C130.318 26.3467 131.065 25.96 132.051 25.96C132.771 25.96 133.358 26.1467 133.811 26.52C134.265 26.8933 134.491 27.3733 134.491 27.96C134.491 28.4933 134.451 28.96 134.371 29.36C134.371 29.4667 134.345 29.6533 134.291 29.92C134.265 30.1867 134.251 30.4667 134.251 30.76C134.251 31.96 134.851 32.8533 136.051 33.44C137.278 34.0267 138.985 34.32 141.171 34.32C143.438 34.32 145.211 33.92 146.491 33.12C147.771 32.2933 148.411 31.1467 148.411 29.68C148.411 28.7733 148.118 28 147.531 27.36C146.945 26.6933 146.211 26.1467 145.331 25.72C144.451 25.2667 143.211 24.72 141.611 24.08C139.558 23.28 137.878 22.52 136.571 21.8C135.291 21.08 134.185 20.1067 133.251 18.88C132.345 17.6267 131.891 16.08 131.891 14.24C131.891 12.32 132.398 10.6133 133.411 9.12C134.451 7.62667 135.931 6.46666 137.851 5.64C139.798 4.81333 142.078 4.4 144.691 4.4C146.638 4.4 148.425 4.69333 150.051 5.28C151.678 5.84 152.971 6.70667 153.931 7.88C154.918 9.05333 155.411 10.4933 155.411 12.2C155.411 13.88 155.158 15.1467 154.651 16C154.145 16.8533 153.398 17.28 152.411 17.28C151.718 17.28 151.131 17.0667 150.651 16.64C150.198 16.2133 149.971 15.7067 149.971 15.12C149.971 14.6133 150.011 14.1467 150.091 13.72C150.171 12.92 150.211 12.4133 150.211 12.2C150.211 11.08 149.665 10.2267 148.571 9.64C147.478 9.05333 146.118 8.76 144.491 8.76C142.198 8.76 140.438 9.18667 139.211 10.04C138.011 10.8667 137.411 12.04 137.411 13.56C137.411 14.5733 137.718 15.44 138.331 16.16C138.971 16.88 139.758 17.48 140.691 17.96C141.625 18.44 142.931 19.0133 144.611 19.68C146.638 20.5067 148.265 21.2533 149.491 21.92C150.718 22.5867 151.758 23.4933 152.611 24.64C153.491 25.7867 153.931 27.2 153.931 28.88C153.931 32.0267 152.731 34.4533 150.331 36.16C147.958 37.84 144.771 38.68 140.771 38.68Z" stroke="#FFF3E1" stroke-width="0.5"/>
<path d="M177.746 26.08C178.092 26.08 178.359 26.2533 178.546 26.6C178.732 26.9467 178.826 27.3867 178.826 27.92C178.826 29.2 178.439 29.96 177.666 30.2C176.066 30.76 174.306 31.08 172.386 31.16C171.879 33.4 170.879 35.2 169.386 36.56C167.892 37.8933 166.199 38.56 164.306 38.56C162.706 38.56 161.332 38.1733 160.186 37.4C159.066 36.6267 158.212 35.6 157.626 34.32C157.039 33.04 156.746 31.6533 156.746 30.16C156.746 28.1333 157.132 26.3333 157.906 24.76C158.679 23.16 159.746 21.92 161.106 21.04C162.466 20.1333 163.972 19.68 165.626 19.68C167.652 19.68 169.279 20.3867 170.506 21.8C171.759 23.1867 172.492 24.9067 172.706 26.96C173.959 26.88 175.452 26.6133 177.186 26.16C177.399 26.1067 177.586 26.08 177.746 26.08ZM164.626 34.32C165.479 34.32 166.212 33.9733 166.826 33.28C167.466 32.5867 167.892 31.5867 168.106 30.28C167.279 29.72 166.639 28.9867 166.186 28.08C165.759 27.1733 165.546 26.2133 165.546 25.2C165.546 24.7733 165.586 24.3467 165.666 23.92H165.466C164.399 23.92 163.506 24.44 162.786 25.48C162.092 26.4933 161.746 27.9333 161.746 29.8C161.746 31.2667 162.026 32.3867 162.586 33.16C163.172 33.9333 163.852 34.32 164.626 34.32Z" stroke="#FFF3E1" stroke-width="0.5"/>
<path d="M179.473 38.56C178.273 38.56 177.286 38.0133 176.512 36.92C175.766 35.8 175.393 34.4133 175.393 32.76C175.393 30.76 175.526 28.9333 175.793 27.28C176.059 25.6 176.499 23.8267 177.113 21.96C177.379 21.16 177.752 20.5867 178.232 20.24C178.712 19.8933 179.472 19.72 180.512 19.72C181.099 19.72 181.499 19.8133 181.713 20C181.953 20.1867 182.073 20.4667 182.073 20.84C182.073 21.0533 181.926 21.7733 181.633 23C181.366 23.9867 181.153 24.88 180.993 25.68C180.459 28.48 180.193 30.3467 180.193 31.28C180.193 31.84 180.259 32.24 180.393 32.48C180.526 32.6933 180.739 32.8 181.033 32.8C181.433 32.8 181.926 32.4 182.512 31.6C183.126 30.8 183.766 29.5867 184.433 27.96C185.126 26.3333 185.793 24.3333 186.433 21.96C186.646 21.16 186.966 20.5867 187.393 20.24C187.846 19.8933 188.513 19.72 189.393 19.72C190.006 19.72 190.433 19.8 190.673 19.96C190.913 20.0933 191.033 20.36 191.033 20.76C191.033 21.4267 190.699 23.2533 190.033 26.24C189.286 29.6533 188.913 31.76 188.913 32.56C188.913 33.0667 189.019 33.4667 189.232 33.76C189.446 34.0267 189.726 34.16 190.073 34.16C190.606 34.16 191.232 33.84 191.952 33.2C192.699 32.5333 193.686 31.4667 194.913 30C195.233 29.6267 195.593 29.44 195.993 29.44C196.339 29.44 196.606 29.6 196.793 29.92C197.006 30.24 197.113 30.68 197.113 31.24C197.113 32.3067 196.859 33.1333 196.353 33.72C195.206 35.1333 193.966 36.2933 192.633 37.2C191.326 38.1067 189.833 38.56 188.153 38.56C186.873 38.56 185.926 38.0667 185.312 37.08C184.726 36.0933 184.433 34.7067 184.433 32.92C183.979 34.7333 183.299 36.1333 182.393 37.12C181.486 38.08 180.513 38.56 179.473 38.56Z" stroke="#FFF3E1" stroke-width="0.5"/>
<path d="M213.048 29.44C213.394 29.44 213.661 29.6 213.848 29.92C214.061 30.24 214.168 30.68 214.168 31.24C214.168 32.2267 213.914 33.0533 213.408 33.72C212.154 35.3467 210.594 36.6267 208.728 37.56C206.888 38.4933 204.808 38.96 202.488 38.96C200.674 38.96 199.101 38.6933 197.768 38.16C196.434 37.6 195.408 36.8533 194.688 35.92C193.994 34.96 193.648 33.8933 193.648 32.72C193.648 30.96 194.354 29.4 195.768 28.04C197.181 26.68 199.208 25.3733 201.848 24.12L195.288 24.28C194.701 24.3067 194.248 24.1067 193.928 23.68C193.634 23.2267 193.488 22.6933 193.488 22.08C193.488 21.44 193.634 20.88 193.928 20.4C194.248 19.8933 194.674 19.64 195.208 19.64C196.434 19.64 198.074 19.7333 200.128 19.92C200.554 19.9467 201.328 20 202.448 20.08C203.594 20.16 204.554 20.2 205.328 20.2C205.594 20.2 206.101 20.0933 206.848 19.88C206.981 19.8533 207.234 19.7867 207.608 19.68C208.008 19.5733 208.341 19.52 208.608 19.52C209.034 19.52 209.381 19.7067 209.648 20.08C209.941 20.4533 210.088 21.0267 210.088 21.8C210.088 22.6533 209.888 23.32 209.488 23.8C209.088 24.28 208.461 24.7067 207.608 25.08C205.181 26.12 203.168 27.24 201.568 28.44C199.968 29.6133 199.168 30.7867 199.168 31.96C199.168 32.7067 199.514 33.32 200.208 33.8C200.901 34.28 201.928 34.52 203.288 34.52C204.781 34.52 206.288 34.1467 207.808 33.4C209.354 32.6533 210.741 31.52 211.968 30C212.288 29.6267 212.648 29.44 213.048 29.44Z" stroke="#FFF3E1" stroke-width="0.5"/>
<path d="M215.11 38.56C213.59 38.56 212.35 37.96 211.39 36.76C210.456 35.56 209.99 33.9867 209.99 32.04C209.99 29.9067 210.483 27.8933 211.47 26C212.456 24.08 213.763 22.5467 215.39 21.4C217.043 20.2267 218.79 19.64 220.63 19.64C221.216 19.64 221.603 19.76 221.79 20C222.003 20.2133 222.176 20.6133 222.31 21.2C222.816 21.0933 223.376 21.04 223.99 21.04C224.63 21.04 225.123 21.2 225.47 21.52C225.816 21.84 225.99 22.2933 225.99 22.88C225.99 23.4933 225.856 24.56 225.59 26.08C225.296 27.7067 225.07 29.2667 224.91 30.76C224.75 32.2267 224.67 33.88 224.67 35.72C224.67 36.7333 224.456 37.4667 224.03 37.92C223.63 38.3467 222.963 38.56 222.03 38.56C221.123 38.56 220.443 38.3467 219.99 37.92C219.563 37.4667 219.35 36.7467 219.35 35.76L219.39 35.12C218.563 37.4133 217.136 38.56 215.11 38.56ZM216.67 34.52C217.416 34.52 218.096 34 218.71 32.96C219.323 31.92 219.87 30.0667 220.35 27.4L221.11 23.36C220.016 23.3867 219.003 23.8133 218.07 24.64C217.136 25.44 216.39 26.5067 215.83 27.84C215.27 29.1733 214.99 30.5867 214.99 32.08C214.99 32.88 215.136 33.4933 215.43 33.92C215.75 34.32 216.163 34.52 216.67 34.52Z" stroke="#FFF3E1" stroke-width="0.5"/>
</svg>
