

<svg>
    <symbol id="hamburger" width="100%" height="100%" viewBox="0 0 27 24" fill="inherit" xmlns="http://www.w3.org/2000/svg">
        <path d="M26.0357 4.35938H0.964285C0.431698 4.35938 0 3.92568 0 3.39062V0.96875C0 0.433697 0.431698 0 0.964285 0H26.0357C26.5683 0 27 0.433697 27 0.96875V3.39062C27 3.92568 26.5683 4.35938 26.0357 4.35938ZM26.0357 14.0469H0.964285C0.431698 14.0469 0 13.6132 0 13.0781V10.6562C0 10.1212 0.431698 9.6875 0.964285 9.6875H26.0357C26.5683 9.6875 27 10.1212 27 10.6562V13.0781C27 13.6132 26.5683 14.0469 26.0357 14.0469ZM26.0357 23.7344H0.964285C0.431698 23.7344 0 23.3007 0 22.7656V20.3438C0 19.8087 0.431698 19.375 0.964285 19.375H26.0357C26.5683 19.375 27 19.8087 27 20.3438V22.7656C27 23.3007 26.5683 23.7344 26.0357 23.7344Z"/>
    </symbol>
    <svg id="home_page_logo" width="100%" height="100%" viewBox="0 0 40 32" fill="inherit" xmlns="http://www.w3.org/2000/svg">
<path d="M15.9394 16.3531C16.33 16.7437 16.9631 16.7437 17.3538 16.3531L18.0606 15.6462C18.4513 15.2556 18.4513 14.6225 18.0606 14.2319L15.8281 12L18.06 9.7675C18.4506 9.37687 18.4506 8.74375 18.06 8.35312L17.3531 7.64625C16.9625 7.25562 16.3294 7.25562 15.9388 7.64625L12.2925 11.2925C11.9019 11.6831 11.9019 12.3162 12.2925 12.7069L15.9394 16.3531ZM21.94 15.6469L22.6469 16.3538C23.0375 16.7444 23.6706 16.7444 24.0613 16.3538L27.7075 12.7075C28.0981 12.3169 28.0981 11.6838 27.7075 11.2931L24.0613 7.64687C23.6706 7.25625 23.0375 7.25625 22.6469 7.64687L21.94 8.35375C21.5494 8.74438 21.5494 9.3775 21.94 9.76812L24.1719 12L21.94 14.2325C21.5494 14.6231 21.5494 15.2563 21.94 15.6469ZM39 26H23.8463C23.8 27.2381 22.9269 28 21.8 28H18C16.8319 28 15.9362 26.9081 15.9519 26H1C0.45 26 0 26.45 0 27V28C0 30.2 1.8 32 4 32H36C38.2 32 40 30.2 40 28V27C40 26.45 39.55 26 39 26ZM36 3C36 1.35 34.65 0 33 0H7C5.35 0 4 1.35 4 3V24H36V3ZM32 20H8V4H32V20Z"/>
</svg>


</svg>

